<!-- src/assets/react.svg -->
<svg xmlns="http://www.w3.org/2000/svg" viewBox="0 0 841.9 595.3">
  <g fill="#61DAFB">
    <path d="M666.3 296.5c0-45.7-10.1-88.9-27.3-128.1 
      11.8-27.2 17.9-56.4 17.9-86.2 
      0-113.6-92.4-205.8-206-205.8
      -47.4 0-91.2 16-126.2 42.8
      -38.2-6.2-77.4-9.5-117-9.5
      -63.4 0-122.6 10.5-178.1 29.2 
      3.2 26.8 10.3 52.6 20.8 76.3
      -18.7 39.3-29.1 82.9-29.1 128.1
      s10.4 88.8 29.1 128.1
      c-10.5 23.7-17.6 49.5-20.8 76.3
      55.5 18.7 114.7 29.2 178.1 29.2
      39.6 0 78.8-3.3 117-9.5
      35 26.8 78.8 42.8 126.2 42.8
      113.6 0 206-92.3 206-205.9zm-206-100.7
      c-55.6 0-100.7 45.1-100.7 100.7s45.1 100.7 100.7 100.7
      100.7-45.1 100.7-100.7-45.1-100.7-100.7-100.7z"/>
    <circle cx="420.9" cy="296.5" r="45.7"/>
  </g>
</svg>
